<svg width="214" height="32" viewBox="0 0 214 32" fill="none" xmlns="http://www.w3.org/2000/svg">
<path d="M131.138 1.75957H136.992V30.7729H131.138V1.75957Z" fill="white"/>
<path d="M151.13 9.42347C154.257 9.42347 156.659 10.2055 158.335 11.7696C160.011 13.3076 160.849 15.6406 160.849 18.7687V30.7729H155.371V28.1531C154.27 30.1082 152.219 31.0857 149.217 31.0857C147.666 31.0857 146.315 30.812 145.164 30.2646C144.038 29.7172 143.175 28.9612 142.575 27.9967C141.975 27.0322 141.674 25.9373 141.674 24.7122C141.674 22.7571 142.375 21.2191 143.776 20.0982C145.202 18.9773 147.391 18.4168 150.342 18.4168H154.995C154.995 17.0874 154.608 16.0707 153.832 15.3669C153.057 14.637 151.893 14.2721 150.342 14.2721C149.267 14.2721 148.204 14.4545 147.153 14.8195C146.127 15.1584 145.252 15.6276 144.526 16.2271L142.425 11.9651C143.526 11.157 144.839 10.5313 146.365 10.0882C147.916 9.64504 149.504 9.42347 151.13 9.42347ZM150.68 26.9801C151.681 26.9801 152.569 26.7454 153.344 26.2762C154.12 25.7809 154.67 25.0641 154.995 24.1256V21.9751H150.98C148.579 21.9751 147.378 22.7962 147.378 24.4385C147.378 25.2205 147.666 25.8461 148.241 26.3153C148.841 26.7585 149.655 26.9801 150.68 26.9801Z" fill="white"/>
<path d="M178.98 9.42347C181.482 9.42347 183.496 10.2055 185.022 11.7696C186.573 13.3336 187.348 15.6536 187.348 18.7296V30.7729H181.494V19.6681C181.494 17.9997 181.144 16.7615 180.444 15.9534C179.743 15.1193 178.73 14.7022 177.404 14.7022C175.928 14.7022 174.753 15.1844 173.877 16.1489C173.001 17.0874 172.564 18.495 172.564 20.3719V30.7729H166.71V9.73628H172.301V12.1997C173.076 11.3134 174.04 10.6356 175.19 10.1664C176.341 9.67111 177.604 9.42347 178.98 9.42347Z" fill="white"/>
<path d="M214 1.75957V30.7729H208.409V28.3486C206.958 30.1733 204.857 31.0857 202.105 31.0857C200.204 31.0857 198.478 30.6426 196.927 29.7563C195.401 28.87 194.2 27.6057 193.324 25.9634C192.449 24.3211 192.011 22.4182 192.011 20.2546C192.011 18.091 192.449 16.188 193.324 14.5458C194.2 12.9035 195.401 11.6392 196.927 10.7529C198.478 9.86662 200.204 9.42347 202.105 9.42347C204.682 9.42347 206.695 10.2707 208.146 11.9651V1.75957H214ZM203.118 26.0807C204.594 26.0807 205.82 25.5594 206.795 24.5167C207.771 23.4479 208.259 22.0272 208.259 20.2546C208.259 18.482 207.771 17.0743 206.795 16.0316C205.82 14.9629 204.594 14.4285 203.118 14.4285C201.617 14.4285 200.379 14.9629 199.403 16.0316C198.428 17.0743 197.94 18.482 197.94 20.2546C197.94 22.0272 198.428 23.4479 199.403 24.5167C200.379 25.5594 201.617 26.0807 203.118 26.0807Z" fill="white"/>
<path d="M61.1183 16.5399C62.6251 17.0352 63.8054 17.8694 64.6593 19.0424C65.5131 20.1894 65.94 21.6101 65.94 23.3045C65.94 25.7027 65.036 27.5535 63.2278 28.8569C61.4448 30.1342 58.833 30.7729 55.3925 30.7729H41.7561V3.40183H54.6391C57.8536 3.40183 60.3147 4.04049 62.0224 5.31781C63.7552 6.59512 64.6216 8.32863 64.6216 10.5183C64.6216 11.8478 64.3077 13.0338 63.6798 14.0765C63.0771 15.1193 62.2233 15.9404 61.1183 16.5399ZM47.8209 8.17222V14.624H53.8857C55.3925 14.624 56.5352 14.3503 57.3137 13.8028C58.0922 13.2554 58.4814 12.4473 58.4814 11.3785C58.4814 10.3098 58.0922 9.51471 57.3137 8.99335C56.5352 8.44593 55.3925 8.17222 53.8857 8.17222H47.8209ZM54.9405 26.0025C56.5477 26.0025 57.7532 25.7288 58.5568 25.1814C59.3855 24.634 59.7999 23.7868 59.7999 22.6398C59.7999 20.3719 58.1801 19.238 54.9405 19.238H47.8209V26.0025H54.9405Z" fill="#F5DFC6"/>
<path d="M70.7108 9.73628H76.5873V30.7729H70.7108V9.73628ZM73.6491 6.80366C72.5692 6.80366 71.6902 6.47782 71.0122 5.82613C70.3341 5.17444 69.9951 4.36634 69.9951 3.40183C69.9951 2.43733 70.3341 1.62923 71.0122 0.97754C71.6902 0.325847 72.5692 0 73.6491 0C74.7289 0 75.6079 0.312813 76.2859 0.938438C76.964 1.56406 77.303 2.34609 77.303 3.28453C77.303 4.30117 76.964 5.14837 76.2859 5.82613C75.6079 6.47782 74.7289 6.80366 73.6491 6.80366Z" fill="#F5DFC6"/>
<path d="M91.3079 22.5225L88.4827 25.416V30.7729H82.6062V1.75957H88.4827V18.1822L97.0714 9.73628H104.078L95.6399 18.6514L104.831 30.7729H97.7117L91.3079 22.5225Z" fill="#F5DFC6"/>
<path d="M127.008 20.3328C127.008 20.411 126.97 20.9584 126.895 21.9751H111.564C111.84 23.2784 112.493 24.3081 113.522 25.0641C114.552 25.82 115.833 26.198 117.365 26.198C118.419 26.198 119.349 26.0416 120.152 25.7288C120.981 25.3899 121.747 24.8686 122.45 24.1647L125.577 27.6839C123.668 29.9518 120.881 31.0857 117.214 31.0857C114.929 31.0857 112.907 30.6295 111.149 29.7172C109.391 28.7787 108.035 27.4884 107.081 25.8461C106.127 24.2038 105.649 22.34 105.649 20.2546C105.649 18.1952 106.114 16.3444 107.043 14.7022C107.998 13.0338 109.291 11.7435 110.923 10.8311C112.581 9.89269 114.426 9.42347 116.461 9.42347C118.445 9.42347 120.24 9.86662 121.847 10.7529C123.455 11.6392 124.71 12.9165 125.614 14.5849C126.544 16.2271 127.008 18.1431 127.008 20.3328ZM116.498 14.0374C115.167 14.0374 114.05 14.4285 113.146 15.2105C112.242 15.9925 111.689 17.0613 111.488 18.4168H121.471C121.27 17.0874 120.717 16.0316 119.813 15.2496C118.909 14.4415 117.804 14.0374 116.498 14.0374Z" fill="#F5DFC6"/>
<path d="M6.73485 31.3216C10.4544 31.3216 13.4697 28.1525 13.4697 24.2433C13.4697 20.334 10.4544 17.1649 6.73485 17.1649C3.0153 17.1649 0 20.334 0 24.2433C0 28.1525 3.0153 31.3216 6.73485 31.3216Z" fill="#F5DFC6"/>
<path d="M28.0618 31.3216C31.7814 31.3216 34.7967 28.1525 34.7967 24.2433C34.7967 20.334 31.7814 17.1649 28.0618 17.1649C24.3423 17.1649 21.327 20.334 21.327 24.2433C21.327 28.1525 24.3423 31.3216 28.0618 31.3216Z" fill="#F5DFC6"/>
<path fill-rule="evenodd" clip-rule="evenodd" d="M20.4716 6.31353C20.9534 6.39216 21.3818 6.67971 21.6523 7.10614L24.129 11.0108H27.6878C28.6487 11.0108 29.4277 11.8295 29.4277 12.8393C29.4277 13.8492 28.6487 14.6679 27.6878 14.6679H23.1979C22.6162 14.6679 22.073 14.3624 21.7503 13.8537L19.8097 10.7943L15.3262 14.5639L18.4416 17.8382C18.7679 18.1811 18.9512 18.6462 18.9512 19.1312V25.4231C18.9512 26.433 18.1723 27.2516 17.2114 27.2516C16.2505 27.2516 15.4715 26.433 15.4715 25.4231V19.8886L11.4912 15.7053C11.1413 15.3375 10.9569 14.8305 10.9843 14.3112C11.0117 13.7919 11.2482 13.3094 11.6346 12.9844L19.1178 6.69258C19.4986 6.37242 19.9897 6.2349 20.4716 6.31353Z" fill="#F5DFC6"/>
<path d="M24.6944 4.97454C25.521 4.97454 26.191 4.2703 26.191 3.40158C26.191 2.53285 25.521 1.82861 24.6944 1.82861C23.8678 1.82861 23.1978 2.53285 23.1978 3.40158C23.1978 4.2703 23.8678 4.97454 24.6944 4.97454Z" fill="#F5DFC6"/>
<path fill-rule="evenodd" clip-rule="evenodd" d="M24.6944 3.65714C24.8287 3.65714 24.9376 3.5427 24.9376 3.40154C24.9376 3.26037 24.8287 3.14593 24.6944 3.14593C24.5601 3.14593 24.4512 3.26037 24.4512 3.40154C24.4512 3.5427 24.5601 3.65714 24.6944 3.65714ZM21.4579 3.40154C21.4579 1.52292 22.907 0 24.6944 0C26.4819 0 27.9309 1.52292 27.9309 3.40154C27.9309 5.28015 26.4819 6.80307 24.6944 6.80307C22.907 6.80307 21.4579 5.28015 21.4579 3.40154Z" fill="#F5DFC6"/>
<path fill-rule="evenodd" clip-rule="evenodd" d="M7.85736 13.3604C7.85736 13.8653 7.46788 14.2747 6.98744 14.2747L3.1149 14.2747C2.63446 14.2747 2.24498 13.8653 2.24498 13.3604C2.24498 12.8554 2.63446 12.4461 3.1149 12.4461L6.98744 12.4461C7.46788 12.4461 7.85736 12.8554 7.85736 13.3604Z" fill="#F5DFC6"/>
<path fill-rule="evenodd" clip-rule="evenodd" d="M11.2247 9.82119C11.2247 10.3261 10.8353 10.7355 10.3548 10.7355L6.48227 10.7355C6.00183 10.7355 5.61235 10.3261 5.61235 9.82119C5.61235 9.31624 6.00183 8.9069 6.48227 8.9069L10.3548 8.9069C10.8353 8.9069 11.2247 9.31624 11.2247 9.82119Z" fill="#F5DFC6"/>
<path fill-rule="evenodd" clip-rule="evenodd" d="M7.85736 6.282C7.85736 6.78695 7.46788 7.19629 6.98744 7.19629L3.1149 7.19629C2.63446 7.19629 2.24498 6.78695 2.24498 6.282C2.24498 5.77706 2.63446 5.36772 3.1149 5.36772L6.98744 5.36772C7.46788 5.36772 7.85736 5.77706 7.85736 6.282Z" fill="#F5DFC6"/>
</svg>
